<svg width="50" height="50" viewBox="0 0 50 50" fill="none" xmlns="http://www.w3.org/2000/svg">
<path d="M49.7076 6.63792C49.4898 6.39312 49.1777 6.24908 48.8469 6.24068L43.0313 6.09264C42.2228 4.78026 40.7535 3.94173 39.158 3.94173C38.9878 3.94173 38.8186 3.95116 38.6503 3.96989L37.1965 0.969482C36.9944 0.55209 36.5601 0.293852 36.0891 0.307158C35.6187 0.322273 35.2021 0.609706 35.028 1.03911L34.2368 2.99107L32.3437 0.472255C32.0401 0.0682982 31.507 -0.0986068 31.0214 0.058351C30.5358 0.215309 30.2078 0.660604 30.2078 1.16274V20.6688C30.2078 20.6688 8.51134 25.3074 8.42717 25.3477C7.03253 25.5314 5.64644 25.1784 4.51748 24.3503C3.37246 23.5103 2.62924 22.2827 2.42434 20.8934C2.21943 19.5043 2.57743 18.12 3.43244 16.9955C4.28758 15.8709 5.53728 15.1408 6.95152 14.9395C7.5986 14.8474 8.04695 14.2577 7.95317 13.6221C7.8594 12.9866 7.25941 12.5459 6.61206 12.6382C4.57193 12.9286 2.76918 13.9819 1.53566 15.6042C0.30213 17.2263 -0.214349 19.2232 0.081308 21.2269C0.376833 23.2307 1.44912 25.0016 3.10074 26.2133C4.1704 26.9981 5.40011 27.486 6.68808 27.6545C6.4478 28.1426 6.21724 28.712 6.03469 29.3602C5.45653 31.4131 5.24912 34.6885 7.38685 38.8507L3.91393 43.484C3.68877 43.7843 3.62393 44.1727 3.7398 44.5279L5.26083 49.192C5.41786 49.6734 5.87345 50 6.38809 50H7.937C7.93779 50 7.93858 50 7.93963 50C8.59341 50 9.12331 49.4795 9.12331 48.8373C9.12331 48.7008 9.09937 48.5699 9.05544 48.4482L8.38574 46.0869L18.2555 39.3773C18.2856 39.3567 18.315 39.3348 18.3431 39.3115C19.298 38.5239 20.056 37.5959 20.6045 36.5452L33.0548 36.3289L35.0859 49.0178C35.1764 49.5834 35.6725 50 36.2552 50H37.5298C38.1836 50 38.7135 49.4795 38.7135 48.8373V35.8942C40.2349 35.124 40.5847 33.5298 40.585 32.2276V16.1155C45.5058 16.0249 49.4481 12.4419 49.993 7.5289C50.0289 7.20581 49.9254 6.88272 49.7076 6.63792Z" fill="white"/>
<circle cx="45" cy="46" r="4" fill="white"/>
</svg>
